<?xml version="1.0" encoding="iso-8859-1"?>
<!-- Generator: Adobe Illustrator 24.1.2, SVG Export Plug-In . SVG Version: 6.00 Build 0)  -->
<svg version="1.1" baseProfile="basic" id="Layer_1"
	 xmlns="http://www.w3.org/2000/svg" xmlns:xlink="http://www.w3.org/1999/xlink" x="0px" y="0px" viewBox="0 0 50 50"
	 xml:space="preserve">
<polyline style="fill:none;stroke:#000000;stroke-width:0.5;stroke-linejoin:round;stroke-miterlimit:10;" points="20.001,8.253 
	20,12.876 22,14.03 24,12.876 24,11.721 26,12.876 26,16.34 28,17.495 30.001,16.34 30.001,14.033 "/>
<polyline style="fill:none;stroke:#000000;stroke-width:0.5;stroke-linejoin:round;stroke-miterlimit:10;" points="25,12.296 
	22,10.566 22,14.03 "/>
<polyline style="fill:none;stroke:#000000;stroke-width:0.5;stroke-linejoin:round;stroke-miterlimit:10;" points="30,10.567 
	28,11.721 20,7.097 "/>
<line style="fill:none;stroke:#000000;stroke-width:0.5;stroke-linejoin:round;stroke-miterlimit:10;" x1="28" y1="11.721" x2="28" y2="17.495"/>
<polyline style="fill:none;stroke:#000000;stroke-width:0.5;stroke-linejoin:round;stroke-miterlimit:10;" points="42.001,20.958 
	36.001,24.42 8.001,8.256 "/>
<polygon style="fill:none;stroke:#000000;stroke-width:0.5;stroke-linejoin:round;stroke-miterlimit:10;" points="42.001,20.957 
	42,44.054 36,47.514 8,31.35 8.001,8.256 14.001,4.796 20,8.254 20,7.102 22,5.952 30,10.566 30.001,14.027 "/>
<path d="M14.001,4.796L20,8.254V7.102l2-1.15l8,4.614l0.001,3.461l12,6.93L42,44.054l-6,3.46L8,31.35L8.001,8.256L14.001,4.796
	 M14,3.641l-0.499,0.288l-6,3.46l-0.5,0.289l0,0.578L7,31.35l0,0.577l0.5,0.289l28,16.164l0.5,0.288l0.5-0.288l6-3.46l0.5-0.289
	v-0.578l0.001-23.096l0-0.577l-0.5-0.289L31,13.45l0-2.884l0-0.578L30.5,9.7l-8-4.614l-0.499-0.288l-0.499,0.287l-2,1.15L19,6.523
	L14.5,3.929L14,3.641L14,3.641z"/>
<line style="fill:none;stroke:#000000;stroke-width:0.5;stroke-linejoin:round;stroke-miterlimit:10;" x1="36.001" y1="24.42" x2="36" y2="47.514"/>
<polygon style="fill:none;stroke:#000000;stroke-width:0.5;stroke-linejoin:round;stroke-miterlimit:10;" points="13,25 13,28.464 
	15,29.619 16,29.041 16,25.577 14,24.423 "/>
<polyline style="fill:none;stroke:#000000;stroke-width:0.5;stroke-linejoin:round;stroke-miterlimit:10;" points="13,25 15,26.155 
	16,25.577 "/>
<line style="fill:none;stroke:#000000;stroke-width:0.5;stroke-linejoin:round;stroke-miterlimit:10;" x1="15" y1="26.155" x2="15" y2="29.619"/>
<polygon style="fill:none;stroke:#000000;stroke-width:0.5;stroke-linejoin:round;stroke-miterlimit:10;" points="26,32.506 
	26,35.97 28,37.124 29,36.547 29,33.083 27,31.928 "/>
<polyline style="fill:none;stroke:#000000;stroke-width:0.5;stroke-linejoin:round;stroke-miterlimit:10;" points="26,32.506 
	28,33.66 29,33.083 "/>
<line style="fill:none;stroke:#000000;stroke-width:0.5;stroke-linejoin:round;stroke-miterlimit:10;" x1="28" y1="33.66" x2="28" y2="37.124"/>
<line style="fill:none;stroke:#000000;stroke-width:0.5;stroke-linejoin:round;stroke-miterlimit:10;" x1="36" y1="39.434" x2="29" y2="35.392"/>
<line style="fill:none;stroke:#000000;stroke-width:0.5;stroke-linejoin:round;stroke-miterlimit:10;" x1="26" y1="33.66" x2="16" y2="27.887"/>
<line style="fill:none;stroke:#000000;stroke-width:0.5;stroke-linejoin:round;stroke-miterlimit:10;" x1="13" y1="26.155" x2="8" y2="23.268"/>
</svg>